<svg width="48" height="48" viewBox="0 0 48 48" fill="none" xmlns="http://www.w3.org/2000/svg">
<g clip-path="url(#clip0)">
<circle cx="24" cy="24" r="24" fill="#029147"/>
<g opacity="0.9">
<path d="M32.0249 26.4152C32.0249 26.4152 32.0249 26.4152 32.0249 26.3702C32.0249 26.3252 32.0474 26.3852 32.0249 26.4152Z" fill="white"/>
<path d="M28.2526 24.3824C28.0076 24.4524 27.7576 24.5124 27.5026 24.5624C26.4374 24.7967 25.3573 24.9571 24.2701 25.0424C23.6516 25.0961 23.0307 25.1162 22.4101 25.1024C21.1583 25.12 19.9065 25.0699 18.6601 24.9524C17.65 24.8335 16.6482 24.6532 15.6601 24.4124H15.5701C15.8026 24.1574 16.0426 23.8949 16.3201 23.6624C16.7956 23.1835 17.2963 22.7304 17.8201 22.3049C18.3894 21.8696 19.0027 21.495 19.6501 21.1874L19.7326 21.1499H19.7776L20.0176 21.0599C20.1816 21.0011 20.3495 20.9535 20.5201 20.9174L20.7976 20.8574H21.4651C21.9451 20.8574 22.4251 20.8574 22.9051 20.8574H23.0026L23.2426 20.9099C23.4151 20.9474 23.5876 20.9924 23.7526 21.0449L23.9926 21.1349H24.0676H24.1201C24.2851 21.2099 24.4501 21.2924 24.6151 21.3824C24.9412 21.5561 25.2567 21.7489 25.5601 21.9599C25.7026 22.0574 25.8376 22.1624 25.9726 22.2674L26.1151 22.3724L26.3476 22.5599L27.1426 23.2649C27.5476 23.6249 27.9076 23.9999 28.2526 24.3824Z" fill="white"/>
<path d="M23.49 19.3726C23.1417 19.3049 22.7872 19.2747 22.4325 19.2826C21.8475 19.2826 21.285 19.2826 20.73 19.3351C20.6325 18.9751 20.55 18.5851 20.49 18.2476V18.1276V18.0601V17.7451C20.475 17.5229 20.475 17.2999 20.49 17.0776C20.49 17.0176 20.49 17.0026 20.49 17.0326C20.4859 17.0078 20.4859 16.9825 20.49 16.9576C20.4866 16.9077 20.4866 16.8576 20.49 16.8076L20.7075 16.8901L20.82 16.9426L21.075 17.0701C21.2772 17.1696 21.4727 17.2824 21.66 17.4076C21.7575 17.4676 21.855 17.5276 21.945 17.5951L22.095 17.7001L22.1325 17.7376C22.3383 17.9056 22.5336 18.0859 22.7175 18.2776L22.9725 18.5701V18.6076L23.115 18.8026C23.205 18.9451 23.295 19.0951 23.3775 19.2526C23.4202 19.2875 23.458 19.3278 23.49 19.3726Z" fill="white"/>
<path d="M31.9936 26.4734V26.4673H31.9875L31.9936 26.4734Z" fill="white"/>
<path d="M11.8574 26.4523C11.8595 26.4673 11.8595 26.4824 11.8574 26.4973V26.4448V26.4523Z" fill="white"/>
<path d="M32.5949 10.5002C32.5949 10.5977 32.5949 10.7027 32.5949 10.8002C32.5986 10.8451 32.5986 10.8902 32.5949 10.9352C32.5484 11.2472 32.4705 11.5538 32.3624 11.8502C32.328 11.9024 32.2904 11.9525 32.2499 12.0002C32.23 12.0513 32.2074 12.1013 32.1824 12.1502C32.1199 12.2865 32.0498 12.4192 31.9724 12.5477C31.8449 12.7802 31.6874 12.9977 31.5374 13.2227L31.4324 13.3427V13.2977C31.4324 13.2977 31.3874 13.1852 31.3799 13.1552C31.3565 13.0913 31.3365 13.0262 31.3199 12.9602L31.2674 12.7502C31.2674 12.7502 31.2674 12.7052 31.2674 12.6752C31.2598 12.5503 31.2598 12.425 31.2674 12.3002C31.2674 12.2627 31.2674 12.2252 31.2674 12.1802C31.2715 12.1378 31.2715 12.0951 31.2674 12.0527C31.2903 11.9335 31.3204 11.8158 31.3574 11.7002C31.3819 11.6469 31.4019 11.5917 31.4174 11.5352V11.4977C31.527 11.2804 31.6497 11.07 31.7849 10.8677L31.8974 10.7027L32.1299 10.4327C32.2496 10.2929 32.3774 10.1602 32.5124 10.0352C32.5874 10.1627 32.5949 10.3277 32.5949 10.5002Z" fill="white"/>
<path d="M30.6601 14.9027C30.4582 14.9326 30.2579 14.9727 30.0601 15.0227C30.0987 14.8143 30.1262 14.604 30.1426 14.3927C30.1426 14.2952 30.1426 14.2052 30.1426 14.1152C30.2905 14.3931 30.4637 14.6567 30.6601 14.9027Z" fill="white"/>
<path d="M33.4651 16.7399L33.1651 16.8899H33.1201L32.9176 16.9724L32.5051 17.0999C32.3621 17.1429 32.2169 17.1779 32.0701 17.2049H31.9051H31.7326C31.5751 17.2049 31.4101 17.2049 31.2526 17.2049H31.1251L30.8851 17.1449L30.6451 17.0699L30.5401 17.0249L30.3151 16.8899L30.1576 16.7774C30.0852 16.7231 30.0175 16.6629 29.9551 16.5974C30.2703 16.4886 30.5939 16.4058 30.9226 16.3499H31.0651H31.2151C31.3726 16.3499 31.5376 16.3499 31.6951 16.3499C31.967 16.3441 32.2388 16.3693 32.5051 16.4249C32.8381 16.4851 33.1612 16.5911 33.4651 16.7399Z" fill="white"/>
<path d="M26.91 20.6102H26.6625L26.355 20.6477C26.0194 20.4123 25.6686 20.1993 25.305 20.0102C25.2509 19.7707 25.1807 19.5352 25.095 19.3052C25.4266 19.4682 25.7732 19.5988 26.13 19.6952C26.3567 20.027 26.6182 20.3338 26.91 20.6102Z" fill="white"/>
<path d="M25.935 18.0602L25.6725 17.9327C25.527 17.8515 25.3867 17.7613 25.2525 17.6627L25.125 17.5577L24.93 17.3777L24.75 17.1752V17.1377C24.66 16.9952 24.57 16.8527 24.495 16.7102L24.435 16.5752L24.375 16.4327C24.3221 16.2801 24.277 16.1249 24.24 15.9677C24.24 15.8252 24.1875 15.6902 24.1575 15.5552C24.1275 15.4202 24.1575 15.4877 24.1575 15.4502C24.1575 15.4127 24.1575 15.2927 24.1575 15.2102C24.135 14.9131 24.135 14.6148 24.1575 14.3177C24.1575 14.1827 24.1575 14.0477 24.1575 13.9052C24.1575 13.8302 24.1575 13.7552 24.1575 13.6802C24.1575 13.6052 24.195 13.4852 24.2175 13.3877H24.2625C24.39 13.5077 24.51 13.6277 24.6225 13.7552C24.7217 13.8547 24.812 13.9626 24.8925 14.0777C25.0804 14.3409 25.246 14.6194 25.3875 14.9102L25.4625 15.0752L25.53 15.2402C25.5825 15.3902 25.6275 15.5327 25.6725 15.6827C25.7577 15.9505 25.8253 16.2236 25.875 16.5002V16.6352C25.875 16.6352 25.875 16.7102 25.875 16.7477C25.875 16.7852 25.875 17.0252 25.9125 17.1677C25.9352 17.4646 25.9427 17.7625 25.935 18.0602Z" fill="white"/>
<path d="M30.645 23.1973L30.54 23.2348L30.36 23.2948C30.2331 23.3389 30.1026 23.3715 29.97 23.3923H29.8199H29.5725H29.4075C29.1375 23.0923 28.8675 22.8073 28.5825 22.5223L28.2 22.1548H28.3125L28.545 22.1923C28.6942 22.2193 28.8419 22.2544 28.9875 22.2973C29.1397 22.3343 29.2899 22.3794 29.4375 22.4323L29.61 22.4998C29.6621 22.5202 29.7123 22.5453 29.76 22.5748C29.9089 22.6474 30.0541 22.7275 30.1949 22.8148L30.42 22.9648L30.4875 23.0248L30.645 23.1973Z" fill="white"/>
<path d="M28.6575 17.4298C28.2573 17.5038 27.8636 17.6092 27.48 17.7448C27.4863 17.3033 27.4588 16.862 27.3975 16.4248C27.7026 16.7032 28.043 16.9402 28.41 17.1298C28.4861 17.2349 28.5687 17.3351 28.6575 17.4298Z" fill="white"/>
<path d="M28.6351 14.4602C28.6321 14.5026 28.6321 14.5452 28.6351 14.5877C28.6388 14.6251 28.6388 14.6628 28.6351 14.7002C28.6351 14.8352 28.5826 14.9702 28.5526 15.0977L28.4851 15.3527C28.3843 15.2557 28.2891 15.1531 28.2001 15.0452L28.1026 15.0002C28.0583 14.9405 28.0182 14.8779 27.9826 14.8127L27.9001 14.6477C27.8626 14.5127 27.8176 14.3777 27.7876 14.2427V14.1377C27.7876 14.1377 27.7876 14.1002 27.7876 14.0852C27.7876 13.9502 27.7876 13.8152 27.7876 13.6802V13.3352C27.7876 13.2677 27.7876 13.2002 27.7876 13.1327C27.8326 12.9077 27.9001 12.6752 27.9676 12.4502C27.9676 12.3452 28.0426 12.2402 28.0876 12.1352C28.1326 12.0302 28.0876 12.0452 28.1401 11.9927C28.5567 12.7441 28.7296 13.6063 28.6351 14.4602Z" fill="white"/>
<path d="M32.3101 33.3375C32.3101 33.525 32.3101 33.705 32.3101 33.885C32.3101 33.885 32.3101 34.02 32.3101 34.0575V34.125V34.29C32.2751 34.4837 32.225 34.6742 32.1601 34.86L32.0851 35.0625C32.0851 35.0625 31.9951 35.235 31.9801 35.2725C31.9421 35.3476 31.8995 35.4202 31.8526 35.49L31.7776 35.6025C31.6435 35.7628 31.4954 35.9109 31.3351 36.045C31.2525 36.126 31.1898 36.225 31.1518 36.3342C31.1138 36.4434 31.1016 36.56 31.1161 36.6747C31.1306 36.7895 31.1715 36.8993 31.2355 36.9956C31.2995 37.092 31.385 37.1722 31.4851 37.23L31.5901 37.2975L31.7551 37.44C31.8633 37.5419 31.966 37.6496 32.0626 37.7625L32.1226 37.845C32.1226 37.8975 32.2426 38.115 32.2051 37.995C32.2024 38.0199 32.2024 38.0451 32.2051 38.07V38.115L32.1001 38.25L31.9426 38.4C31.8573 38.458 31.7669 38.5082 31.6726 38.55H31.5376C31.6276 38.55 31.4326 38.55 31.4551 38.55C31.3824 38.5094 31.3122 38.4643 31.2451 38.415C30.7036 38.0299 30.0365 37.8638 29.3776 37.95C29.0401 37.995 28.7101 38.07 28.3801 38.13L27.8851 38.2125H27.6151H27.4726H27.4201L26.0176 38.3625C23.5822 38.5588 21.1359 38.5788 18.6976 38.4225C18.1976 38.3875 17.6976 38.3425 17.1976 38.2875L16.5001 38.25H16.3501L16.0426 38.1975C15.2183 37.9547 14.3531 37.8832 13.5001 37.9875C13.1668 38.0836 12.8523 38.2358 12.5701 38.4375L12.4576 38.505H12.4051C12.4051 38.505 12.3076 38.505 12.4051 38.505C12.2009 38.4455 12.0117 38.3432 11.8501 38.205V38.1375V38.1C11.8544 38.0702 11.8544 38.0399 11.8501 38.01C11.8724 37.9684 11.8974 37.9283 11.9251 37.89C11.9251 37.89 11.9251 37.845 11.9701 37.8225L12.0376 37.7325L12.2101 37.5525C12.2638 37.496 12.3214 37.4434 12.3826 37.395L12.4576 37.3275L12.5176 37.29L12.5926 37.2375C12.6933 37.1803 12.7794 37.1006 12.8441 37.0046C12.9088 36.9086 12.9505 36.7989 12.9657 36.6841C12.981 36.5694 12.9695 36.4526 12.932 36.343C12.8946 36.2334 12.8324 36.134 12.7501 36.0525C12.6118 35.9417 12.4838 35.8187 12.3676 35.685L12.3076 35.6175C12.2508 35.5404 12.1982 35.4603 12.1501 35.3775C12.1051 35.3025 12.0676 35.2275 12.0301 35.1525L11.9776 35.0475C11.9114 34.8814 11.8563 34.711 11.8126 34.5375C11.7686 34.3775 11.736 34.2146 11.7151 34.05C11.7151 34.05 11.7151 33.9825 11.7151 33.945V33.6075C11.6926 33.2479 11.6926 32.8872 11.7151 32.5275C11.7151 32.4375 11.7151 32.34 11.7151 32.25C11.7151 32.16 11.7151 32.1375 11.7151 32.1L11.8051 31.5525C11.8726 31.215 11.9551 30.8775 12.0376 30.54C12.187 29.9682 12.3673 29.4049 12.5776 28.8525C12.6154 28.7604 12.6579 28.6702 12.7051 28.5825C13.8412 28.9731 15.0113 29.2568 16.2001 29.43L16.6201 29.4975C16.6201 30.2025 16.6201 30.9 16.6201 31.605C16.6227 32.1242 16.7404 32.6363 16.9648 33.1045C17.1891 33.5727 17.5146 33.9853 17.9176 34.3125C18.5991 34.8308 19.4396 35.0959 20.2951 35.0625H23.2501C23.9782 35.1051 24.7065 34.982 25.3801 34.7025C25.8408 34.475 26.2457 34.1487 26.5659 33.7468C26.8861 33.3449 27.1137 32.8774 27.2326 32.3775C27.3303 31.75 27.3604 31.1139 27.3226 30.48V29.505C28.4194 29.3447 29.5043 29.1117 30.5701 28.8075L31.2601 28.59L31.3051 28.695C31.5076 29.2125 31.6801 29.7375 31.8301 30.27C31.9276 30.6075 32.0101 30.9525 32.0776 31.29C32.0776 31.4625 32.1526 31.6275 32.1826 31.8L32.2276 32.07V32.115C32.2404 32.159 32.2479 32.2043 32.2501 32.25C32.2951 32.6107 32.3151 32.9741 32.3101 33.3375Z" fill="white"/>
<path d="M36 12.855L35.775 13.215L35.67 13.3575L35.445 13.62C35.2826 13.8074 35.1044 13.9805 34.9125 14.1375C34.8525 14.1375 34.8075 14.2125 34.755 14.2425C34.6475 14.3158 34.5347 14.381 34.4175 14.4375L34.26 14.5125H34.335L34.2075 14.565C34.0798 14.6079 33.9495 14.6429 33.8175 14.67H33.75H33.51H33.1725L33 14.6325C33.0584 14.5566 33.121 14.484 33.1875 14.415C33.3198 14.2651 33.46 14.1224 33.6075 13.9875L33.8625 13.7625L33.9225 13.7175L34.035 13.635C34.2385 13.4909 34.4515 13.3606 34.6725 13.245L34.83 13.17L34.9425 13.1175L35.28 12.9975C35.433 12.9521 35.5882 12.9145 35.745 12.885H35.8425L36 12.855Z" fill="white"/>
<path d="M24 0C19.2533 0 14.6131 1.40758 10.6663 4.04473C6.71955 6.68188 3.6434 10.4302 1.8269 14.8156C0.0103987 19.201 -0.464881 24.0266 0.461164 28.6822C1.38721 33.3377 3.67299 37.6141 7.02945 40.9706C10.3859 44.327 14.6623 46.6128 19.3178 47.5388C23.9734 48.4649 28.799 47.9896 33.1844 46.1731C37.5698 44.3566 41.3181 41.2805 43.9553 37.3337C46.5924 33.3869 48 28.7468 48 24C48 17.6348 45.4714 11.5303 40.9706 7.02944C36.4697 2.52856 30.3652 0 24 0V0ZM37.9275 12.3675C37.8299 12.6239 37.7172 12.8744 37.59 13.1175C37.1134 14.0832 36.4048 14.9155 35.5275 15.54C35.3342 15.6727 35.1282 15.7857 34.9125 15.8775C35.0719 15.9938 35.2247 16.119 35.37 16.2525C35.4511 16.3335 35.5126 16.432 35.5497 16.5404C35.5869 16.6489 35.5986 16.7644 35.5841 16.8781C35.5697 16.9918 35.5293 17.1007 35.4662 17.1963C35.4031 17.292 35.3188 17.3719 35.22 17.43C35.0343 17.5689 34.8388 17.6942 34.635 17.805C34.3147 17.9982 33.9785 18.1638 33.63 18.3C33.9542 18.509 34.2602 18.7449 34.545 19.005C34.6276 19.086 34.6903 19.1849 34.7283 19.2942C34.7663 19.4034 34.7785 19.52 34.764 19.6347C34.7495 19.7495 34.7086 19.8593 34.6446 19.9556C34.5806 20.0519 34.4952 20.1322 34.395 20.19C34.1711 20.353 33.9383 20.5032 33.6975 20.64C32.9003 21.1175 32.0318 21.4643 31.125 21.6675C31.6503 22.0279 32.101 22.4863 32.4525 23.0175C32.5024 23.1027 32.535 23.1968 32.5484 23.2946C32.5619 23.3924 32.5559 23.4918 32.5308 23.5873C32.5057 23.6828 32.462 23.7723 32.4023 23.8509C32.3425 23.9294 32.2678 23.9954 32.1825 24.045L32.0475 24.1425C32.2022 24.2004 32.3484 24.2786 32.4825 24.375C32.8623 24.6379 33.1579 25.0051 33.3336 25.4323C33.5093 25.8595 33.5575 26.3285 33.4725 26.7825C33.3372 27.2527 33.0326 27.6561 32.6175 27.915C32.6925 28.095 32.76 28.2675 32.8275 28.44C33.3505 29.7939 33.6763 31.2159 33.795 32.6625C33.9553 34.0163 33.6282 35.3829 32.8725 36.5175C33.2333 36.8457 33.4935 37.2696 33.6225 37.74C33.9375 39.1275 32.2725 40.41 30.975 39.9375C30.48 39.7575 30.1275 39.315 29.5725 39.39C29.2425 39.435 28.92 39.5175 28.59 39.5775C27.585 39.7425 26.5725 39.855 25.5525 39.93C24.15 40.035 22.7475 40.035 21.345 40.035C20.0775 40.035 18.8025 39.9825 17.5425 39.8625C16.6125 39.7725 15.69 39.6525 14.775 39.48C14.4065 39.3531 14.003 39.3746 13.65 39.54C13.4144 39.7 13.1631 39.8357 12.9 39.945C12.6117 40.0373 12.3047 40.0553 12.0075 39.9975C11.6894 39.9337 11.3876 39.8057 11.1207 39.6213C10.8537 39.4369 10.6272 39.2 10.455 38.925C10.3179 38.6851 10.2427 38.4148 10.2362 38.1385C10.2296 37.8622 10.2919 37.5887 10.4175 37.3425C10.5691 37.0373 10.7692 36.7586 11.01 36.5175C10.6299 36.0066 10.3616 35.4214 10.2225 34.8C9.94039 33.1979 10.0484 31.5515 10.5375 30C10.7296 29.2928 10.9676 28.5988 11.25 27.9225C10.9655 27.7265 10.7274 27.4705 10.5525 27.1725C10.3795 26.7841 10.3201 26.3546 10.3811 25.9339C10.4422 25.5131 10.6212 25.1182 10.8975 24.795C11.1823 24.486 11.5313 24.2433 11.9201 24.0839C12.3088 23.9245 12.7278 23.8524 13.1475 23.8725C13.4171 23.874 13.6858 23.9016 13.95 23.955C14.4786 23.3076 15.0499 22.6962 15.66 22.125C16.6981 21.0955 17.9156 20.2643 19.2525 19.6725C19.0797 19.0576 18.9691 18.427 18.9225 17.79C18.8688 17.2682 18.9172 16.7409 19.065 16.2375C19.2525 15.6825 19.6575 14.9775 20.355 15.135C21.2076 15.3742 22.0121 15.76 22.7325 16.275C22.5801 15.6115 22.5321 14.9283 22.59 14.25C22.6445 13.4589 22.7982 12.6778 23.0475 11.925C23.0775 11.8128 23.133 11.7091 23.2099 11.6221C23.2867 11.535 23.3828 11.467 23.4904 11.4234C23.598 11.3797 23.7142 11.3617 23.83 11.3707C23.9458 11.3796 24.0579 11.4153 24.1575 11.475C24.9787 11.9368 25.6921 12.5683 26.25 13.3275C26.342 12.168 26.7322 11.0519 27.3825 10.0875C27.4404 9.98735 27.5206 9.90193 27.6169 9.83792C27.7132 9.77391 27.8231 9.73304 27.9378 9.71852C28.0525 9.70399 28.1691 9.7162 28.2783 9.75419C28.3876 9.79218 28.4865 9.85492 28.5675 9.9375C29.1132 10.4754 29.5399 11.1218 29.82 11.835C30.0191 11.0547 30.3709 10.3215 30.8549 9.67789C31.3389 9.03425 31.9456 8.49287 32.64 8.085C32.7396 8.02534 32.8517 7.98962 32.9675 7.98066C33.0833 7.9717 33.1996 7.98974 33.3072 8.03337C33.4148 8.07699 33.5108 8.14501 33.5876 8.23206C33.6645 8.31911 33.7201 8.42281 33.75 8.535C34.1841 9.63853 34.2369 10.8555 33.9 11.9925C34.9875 11.4327 36.2311 11.2531 37.4325 11.4825C37.6108 11.5413 37.7606 11.6648 37.8522 11.8287C37.9439 11.9925 37.9707 12.1848 37.9275 12.3675Z" fill="white"/>
<path d="M32.6924 19.5002C32.4524 19.6277 32.2049 19.7477 31.9424 19.8602H31.8674L31.6574 19.9427L31.2374 20.0777L30.8249 20.1827L30.6149 20.2277C30.575 20.2241 30.5348 20.2241 30.4949 20.2277C30.1955 20.2539 29.8943 20.2539 29.5949 20.2277H29.4824L29.2499 20.2502C29.095 20.2106 28.9423 20.1631 28.7924 20.1077L28.6574 20.0477L28.4174 19.9127L28.1849 19.7552L28.0424 19.6352C27.9249 19.5303 27.8146 19.4176 27.7124 19.2977C28.1985 19.1158 28.7008 18.9802 29.2124 18.8927H29.3699H29.6249H30.1574C30.525 18.8901 30.892 18.9253 31.2524 18.9977C31.7562 19.0869 32.2425 19.2566 32.6924 19.5002Z" fill="white"/>
<path d="M11.8576 26.4075C11.8557 26.39 11.8557 26.3724 11.8576 26.355C11.8576 26.355 11.8501 26.3925 11.8576 26.4075Z" fill="white"/>
<path d="M11.895 26.5049L11.955 26.5574C11.955 26.5574 11.9025 26.5349 11.895 26.5049Z" fill="white"/>
<path d="M32.0099 26.4452L31.8299 26.6252L31.6949 26.7152C31.5899 26.7827 31.4699 26.8427 31.3574 26.9027L31.1924 26.9777H31.1249C30.9824 27.0377 30.8474 27.0902 30.7049 27.1352C29.3345 27.576 27.9259 27.8874 26.4974 28.0652L25.9724 28.1402H25.8524L25.5599 28.1777L24.5474 28.2977C23.7974 28.3727 23.0474 28.4552 22.3499 28.4777C21.5054 28.4853 20.6613 28.4402 19.8224 28.3427L18.8549 28.2377L18.3524 28.1777L18.0974 28.1402H17.9699H17.9249L17.5274 28.0877C17.4424 28.051 17.3497 28.0356 17.2574 28.0427C16.033 27.883 14.8221 27.6323 13.6349 27.2927C13.3574 27.2027 13.0874 27.1127 12.8174 27.0002H12.7199L12.5549 26.9177L12.2249 26.7377L12.0899 26.6402C12.0487 26.6039 12.0111 26.5637 11.9774 26.5202C11.9582 26.4969 11.9354 26.4766 11.9099 26.4602C11.9101 26.3089 11.9381 26.159 11.9924 26.0177C11.9924 26.0177 12.0599 25.8977 12.0749 25.8752L12.1574 25.7777C12.1767 25.7622 12.1944 25.7446 12.2099 25.7252C12.2698 25.6858 12.3325 25.6507 12.3974 25.6202H12.4874L12.7274 25.5527H12.8849H13.1099C13.3629 25.5479 13.6153 25.5782 13.8599 25.6427L14.6999 25.8677C16.64 26.3868 18.6328 26.6837 20.6399 26.7527C21.2249 26.7527 21.8099 26.7527 22.3949 26.7527C24.508 26.7658 26.6145 26.5139 28.6649 26.0027C29.0024 25.9202 29.3399 25.8152 29.6774 25.7252C29.7344 25.7357 29.7929 25.7357 29.8499 25.7252C30.1562 25.6473 30.4714 25.6094 30.7874 25.6127C30.8598 25.6188 30.9325 25.6188 31.0049 25.6127H31.1549L31.3649 25.6727H31.4549C31.5149 25.7102 31.5824 25.7402 31.6424 25.7852L31.7174 25.8527C31.7967 25.9284 31.8538 26.0244 31.8824 26.1302C31.9277 26.2581 31.953 26.3922 31.9574 26.5277C31.9574 26.5277 31.9949 26.4377 32.0099 26.4452Z" fill="white"/>
<path d="M11.8726 26.5051V26.4526C11.8726 26.4526 11.8876 26.4976 11.8726 26.5051Z" fill="white"/>
<path d="M11.8635 26.4509L11.8574 26.4448V26.4509H11.8635Z" fill="white"/>
<path d="M11.8579 26.4531L11.8501 26.4453V26.4375V26.4453L11.8579 26.4531Z" fill="white"/>
<path d="M11.8501 26.4448L11.8562 26.4509L11.8501 26.4448Z" fill="white"/>
<path d="M32.0088 26.4446C32.0088 26.4446 31.9966 26.4385 32.0088 26.4446V26.4446Z" fill="white"/>
<path d="M11.8576 26.445L11.9176 26.4975L11.8501 26.4375L11.8576 26.445Z" fill="white"/>
<path d="M32.0105 26.4454C32.0105 26.4454 31.9792 26.4376 32.0105 26.4454V26.4454Z" fill="white"/>
<path d="M20.4375 17.0626C20.4404 17.0503 20.4404 17.0375 20.4375 17.0251C20.4375 17.0251 20.4675 17.0026 20.4375 17.0626Z" fill="white"/>
</g>
</g>
<defs>
<clipPath id="clip0">
<rect width="48" height="48" fill="white"/>
</clipPath>
</defs>
</svg>
