<svg xmlns="http://www.w3.org/2000/svg" viewBox="0 0 949 949"><defs><style>.cls-1{fill:#fff;}</style></defs><g id="Layer_5" data-name="Layer 5"><ellipse class="cls-1" cx="723.88" cy="663.14" rx="39.89" ry="38.61"/><path class="cls-1" d="M714.5,495.91h-307c-36.25,0-65.64,28.44-65.64,63.53V778.37c0,35.09,29.39,63.53,65.64,63.53h307c36.25,0,65.63-28.44,65.63-63.53V559.44C780.13,524.35,750.75,495.91,714.5,495.91Z" transform="translate(-128.45 -125.5)"/><ellipse class="cls-1" cx="723.88" cy="558.56" rx="39.89" ry="38.61"/><path class="cls-1" d="M603,125.5c-262.06,0-474.5,212.44-474.5,474.5S340.89,1074.5,603,1074.5s474.5-212.44,474.5-474.5S865,125.5,603,125.5ZM921.5,831.15c0,35.09-29.39,63.53-65.63,63.53H355c-36.25,0-65.63-28.44-65.63-63.53V506.66c0-35.09,29.38-63.53,65.63-63.53H559.72l-116.2-122.4,14.87-13.23L587.15,443.13h2L714,307.61l15.07,13L616.22,443.13H855.87c36.24,0,65.63,28.44,65.63,63.53Z" transform="translate(-128.45 -125.5)"/><ellipse class="cls-1" cx="723.88" cy="444.2" rx="39.89" ry="38.61"/></g></svg>