<svg width="49" height="49" viewBox="0 0 49 49" fill="none" xmlns="http://www.w3.org/2000/svg">
<path opacity="1" d="M24.0125 48.0251C37.2743 48.0251 48.0251 37.2743 48.0251 24.0125C48.0251 10.7508 37.2743 0 24.0125 0C10.7508 0 0 10.7508 0 24.0125C0 37.2743 10.7508 48.0251 24.0125 48.0251Z" fill="#fff"/>
<path d="M37.1926 31.3876C37.2134 33.074 36.7449 34.7304 35.8437 36.156C34.9425 37.5816 33.6474 38.7154 32.1151 39.4201C30.9195 39.8712 29.6385 40.0505 28.3651 39.9451C27.6601 39.9451 26.9476 39.9451 26.2426 39.9451C25.2624 39.8405 24.3239 39.4925 23.5126 38.9326C23.4056 38.8676 23.3135 38.7807 23.2426 38.6776C23.1503 38.5343 23.1095 38.3639 23.127 38.1943C23.1445 38.0248 23.2193 37.8663 23.3389 37.7449C23.4585 37.6235 23.6159 37.5465 23.7852 37.5265C23.9545 37.5066 24.1255 37.5449 24.2701 37.6351L24.5626 37.8001C25.1868 38.2058 25.9109 38.4315 26.6551 38.4526C27.2251 38.4526 27.7951 38.4526 28.3651 38.4526C29.3335 38.5378 30.3094 38.4463 31.2451 38.1826C39.9451 34.5826 34.0651 22.6351 30.2551 17.1826L26.6476 17.2501H25.8976L25.6951 17.5651L25.5076 17.8801L25.4476 17.9701C25.3714 18.0973 25.2591 18.1991 25.1251 18.2626C25.0152 18.3068 24.8969 18.326 24.7787 18.3186C24.6606 18.3112 24.5455 18.2776 24.442 18.2201C24.3385 18.1626 24.2492 18.0827 24.1805 17.9862C24.1118 17.8898 24.0655 17.7792 24.0451 17.6626C24.0307 17.5042 24.0704 17.3456 24.1576 17.2126C24.2176 17.1076 24.2776 17.0176 24.3301 16.9201C24.7351 16.2376 25.0051 15.7801 25.8901 15.7501H27.2251H28.0426C28.2451 15.7501 28.4701 15.7501 28.7176 15.7051C29.6326 15.6226 30.7351 15.5176 31.2751 16.1476C32.5698 17.8151 33.653 19.6364 34.5001 21.5701C36.0001 24.6001 37.2376 27.9676 37.1926 31.3876Z" fill="#029147"/>
<path d="M23.0474 22.5524C23.0474 22.5524 23.0474 22.6049 23.0474 22.6349C22.8224 23.1299 22.6124 23.6399 22.4174 24.1349C22.3574 24.2774 22.3049 24.4274 22.2524 24.5774C22.1982 24.7681 22.0707 24.9295 21.8979 25.0265C21.725 25.1235 21.5208 25.1481 21.3299 25.0949C21.2187 25.0604 21.1163 25.0024 21.0295 24.9247C20.9428 24.8471 20.8739 24.7517 20.8274 24.6449C20.7958 24.5702 20.7795 24.4898 20.7795 24.4087C20.7795 24.3275 20.7958 24.2472 20.8274 24.1724C20.9549 23.8349 21.0899 23.4899 21.2249 23.1524L21.5399 22.4024L21.8099 21.7799C21.9113 21.6089 22.0766 21.4852 22.2693 21.4359C22.4619 21.3867 22.6663 21.416 22.8374 21.5174C22.976 21.6011 23.0839 21.7274 23.1449 21.8774C23.1741 21.9908 23.1805 22.1088 23.1637 22.2247C23.147 22.3406 23.1075 22.452 23.0474 22.5524Z" fill="#029147"/>
<path d="M28.8225 16.455C28.575 14.355 28.4475 10.7175 30.495 9.4575C31.32 8.955 30.57 7.6575 29.745 8.16C27.1425 9.75 27 13.74 27.3225 16.455C27.435 17.4 28.9275 17.4075 28.8225 16.455Z" fill="#029147"/>
<path d="M33.1049 30.1349C32.7674 26.6174 30.4049 23.3849 26.5874 24.5924C26.4576 24.6257 26.3403 24.696 26.2499 24.7949C26.1169 24.9343 26.0427 25.1197 26.0427 25.3124C26.0427 25.5051 26.1169 25.6904 26.2499 25.8299C26.2049 25.7849 26.4824 26.1674 26.5649 26.3099C26.8765 26.8514 27.1089 27.4348 27.2549 28.0424C27.727 30.3789 27.3409 32.8074 26.1674 34.8824C26.122 34.9708 26.0946 35.0674 26.0869 35.1666C26.0791 35.2657 26.0912 35.3654 26.1224 35.4599C26.1395 35.5443 26.1736 35.6244 26.2226 35.6953C26.2716 35.7662 26.3344 35.8264 26.4074 35.8724C26.4726 35.9162 26.5432 35.9515 26.6174 35.9774C30.4574 37.1849 33.4499 33.8699 33.1049 30.1349ZM27.8549 34.7249C29.0249 31.9574 29.5124 28.5224 28.0349 25.8524C32.6624 25.7249 32.9249 35.3249 27.8699 34.7249H27.8549Z" fill="#029147"/>
<path d="M27.99 13.335C27.99 13.335 28.8975 8.18995 35.67 9.64495C35.67 9.64495 34.59 14.8875 27.99 13.335Z" fill="#029147"/>
<path d="M28.0875 28.95C28.0129 27.9017 27.7218 26.8802 27.2325 25.95L27.075 25.6875C26.8504 25.3472 26.5717 25.0457 26.25 24.795C25.695 24.4064 25.0601 24.1468 24.3918 24.0352C23.7235 23.9236 23.0387 23.9629 22.3875 24.15C21.842 24.267 21.3093 24.4378 20.7975 24.66L20.5875 24.7575H18.375C18.375 24.7575 11.6625 21.345 10.875 28.95C10.5707 30.9992 10.9464 33.0916 11.9448 34.9067C12.9431 36.7219 14.509 38.1598 16.4025 39C16.9335 39.2263 17.525 39.268 18.0825 39.1184C18.6399 38.9689 19.1311 38.6367 19.4775 38.175C19.8252 38.6373 20.3177 38.9697 20.8765 39.1193C21.4352 39.2688 22.0279 39.2268 22.56 39C22.7878 38.9039 23.0106 38.7963 23.2275 38.6775C23.6908 38.4216 24.1323 38.1282 24.5475 37.8C25.2488 37.2494 25.872 36.606 26.4 35.8875C26.6885 35.489 26.9395 35.0647 27.15 34.62C28.0028 32.86 28.3284 30.8909 28.0875 28.95ZM21.8625 26.7C21.2088 27.3355 20.333 27.691 19.4213 27.691C18.5096 27.691 17.6338 27.3355 16.98 26.7C16.2825 26.0325 17.3475 24.975 18.0375 25.6425C18.2243 25.8272 18.4461 25.9726 18.69 26.07C18.9298 26.1648 19.1861 26.2103 19.4438 26.2039C19.7016 26.1974 19.9553 26.1392 20.19 26.0325C20.4107 25.9332 20.6154 25.8018 20.7975 25.6425C21.525 25.02 22.59 26.0775 21.8625 26.7075V26.7ZM24.21 33.1875C24.825 31.53 25.71 28.08 23.805 27.03C22.9575 26.565 23.715 25.275 24.555 25.74C27.2625 27.24 26.4975 31.305 25.65 33.585C25.3275 34.5 23.88 34.1025 24.21 33.195V33.1875Z" fill="#029147"/>
<path d="M25.7249 17.55C25.1732 17.5417 24.6217 17.5742 24.0749 17.6475C20.5499 18.1425 19.5149 20.3775 19.2149 21.66C19.1386 21.9568 19.0959 22.2612 19.0874 22.5675H19.6649C20.2764 22.5745 20.8871 22.5193 21.4874 22.4025C22.0429 22.298 22.5825 22.1215 23.0924 21.8775C23.9092 21.4686 24.6053 20.8536 25.1117 20.0933C25.6181 19.3331 25.9173 18.4538 25.9799 17.5425L25.7249 17.55ZM19.9124 21.81C20.3699 19.56 22.8374 18.5025 25.1624 18.3375C24.6299 20.595 22.2374 21.6675 19.9124 21.81Z" fill="white"/>
<path d="M26.6475 17.2503C26.5814 17.1297 26.4852 17.0283 26.3682 16.956C26.2512 16.8837 26.1174 16.843 25.98 16.8378C25.4384 16.8332 24.8971 16.8657 24.36 16.9353C21.8625 17.2878 19.41 18.5478 18.6075 20.9028C18.4251 21.4492 18.3339 22.0219 18.3375 22.5978C18.3313 22.7234 18.3603 22.8483 18.4213 22.9583C18.4822 23.0682 18.5727 23.159 18.6825 23.2203C18.8003 23.2996 18.9381 23.3438 19.08 23.3478C19.35 23.3478 19.62 23.3478 19.89 23.3478C20.3175 23.3267 20.7433 23.2791 21.165 23.2053C21.7972 23.0941 22.4157 22.9156 23.01 22.6728C24.0687 22.2997 24.9898 21.6151 25.6524 20.7089C26.315 19.8027 26.688 18.7174 26.7225 17.5953C26.7293 17.4757 26.7034 17.3564 26.6475 17.2503ZM19.8975 21.8403C20.355 19.5903 22.8225 18.5328 25.1475 18.3678C24.63 20.5953 22.2375 21.6678 19.9125 21.8103L19.8975 21.8403Z" fill="#029147"/>
<path d="M20.1974 26.0399C19.9627 26.1465 19.7089 26.2048 19.4512 26.2113C19.1935 26.2177 18.9371 26.1722 18.6974 26.0774C18.7173 25.6342 18.6998 25.1901 18.6449 24.7499C18.4574 22.9949 17.7149 21.2474 15.8999 21.2249C15.701 21.2249 15.5102 21.1459 15.3696 21.0052C15.2289 20.8646 15.1499 20.6738 15.1499 20.4749C15.1499 20.276 15.2289 20.0852 15.3696 19.9446C15.5102 19.8039 15.701 19.7249 15.8999 19.7249C16.4052 19.7143 16.9072 19.8097 17.3735 20.0047C17.8398 20.1997 18.2601 20.4902 18.6074 20.8574C18.8402 21.0951 19.0441 21.3594 19.2149 21.6449C19.2447 21.6991 19.2772 21.7516 19.3124 21.8024C19.4399 22.0499 19.5599 22.3049 19.6649 22.5524C19.7024 22.6499 19.7399 22.7549 19.7699 22.8524C19.7999 22.9499 19.8599 23.1374 19.8974 23.2799C20.0248 23.7616 20.1101 24.2535 20.1524 24.7499C20.1938 25.1786 20.2089 25.6094 20.1974 26.0399Z" fill="#029147"/>
</svg>
