<svg width="49" height="52" viewBox="0 0 49 52" fill="none" xmlns="http://www.w3.org/2000/svg">
<path opacity="1" d="M24.0125 51.0251C37.2743 51.0251 48.0251 40.2743 48.0251 27.0125C48.0251 13.7508 37.2743 3 24.0125 3C10.7508 3 0 13.7508 0 27.0125C0 40.2743 10.7508 51.0251 24.0125 51.0251Z" fill="#fff"/>
<path d="M19.2285 34.5127L19.0868 34.2965L18.8184 33.9162L18.7364 33.797L13.2863 26.043L13.2191 25.9461L12.7718 25.3496H12.4139H5.56211H4.42139L4.64506 25.5509L5.29371 26.0952L9.69259 29.8678L9.85662 30.0094L10.2741 30.3673L9.76715 30.7401L9.65531 30.8221L5.44282 33.9162L4.58541 34.5425L4.42139 34.6618H19.3328L19.2285 34.5127ZM6.7103 33.9162L10.6842 31.016C10.7838 30.9585 10.8687 30.8787 10.9323 30.783C10.9959 30.6872 11.0366 30.578 11.051 30.464C11.0654 30.3499 11.0533 30.234 11.0155 30.1254C10.9778 30.0168 10.9154 29.9185 10.8333 29.838L6.43443 26.0952H12.5183C12.7668 27.5898 13.3009 29.0226 14.0915 30.3151C14.9687 31.7519 16.14 32.9868 17.5286 33.9386L6.7103 33.9162Z" fill="#029147"/>
<path d="M20.0185 34.8629C19.9887 34.9763 19.9325 35.081 19.8545 35.1686C19.7875 35.2471 19.704 35.3099 19.6099 35.3525C19.5158 35.395 19.4135 35.4162 19.3103 35.4146H4.39879C4.23305 35.4175 4.0711 35.365 3.93851 35.2655C3.80592 35.1661 3.71027 35.0252 3.66665 34.8653C3.62304 34.7054 3.63396 34.5355 3.69769 34.3825C3.76141 34.2295 3.87431 34.1021 4.01854 34.0204L9.08099 30.2925L3.86197 25.8191C3.75683 25.7148 3.68512 25.5816 3.65599 25.4364C3.62686 25.2912 3.64163 25.1406 3.69842 25.0038C3.7552 24.867 3.85144 24.7503 3.97484 24.6684C4.09825 24.5866 4.24324 24.5433 4.39133 24.5442H12.3317H12.7417C12.8604 24.5414 12.978 24.5669 13.0847 24.6187C13.1898 24.681 13.279 24.7668 13.3453 24.8693C13.4117 24.9719 13.4533 25.0884 13.4671 25.2098C13.4808 25.3311 13.4662 25.454 13.4244 25.5688C13.3827 25.6836 13.3149 25.7871 13.2264 25.8713H13.1816C13.0834 25.9432 12.9674 25.987 12.8461 25.998H12.4883L6.4342 26.0949L10.8331 29.8228C10.9152 29.9033 10.9775 30.0017 11.0153 30.1103C11.0531 30.2189 11.0652 30.3347 11.0508 30.4488C11.0363 30.5629 10.9957 30.6721 10.9321 30.7678C10.8684 30.8636 10.7835 30.9433 10.684 31.0008L6.71006 33.916H18.8182L18.8704 33.8787C18.9506 33.8209 19.0425 33.7814 19.1396 33.7628C19.2367 33.7443 19.3367 33.7472 19.4326 33.7713C19.5285 33.7955 19.6179 33.8403 19.6947 33.9026C19.7714 33.965 19.8336 34.0433 19.8769 34.1322L19.9589 34.2888C19.9828 34.3334 20.0004 34.381 20.0111 34.4305C20.0508 34.5715 20.0534 34.7205 20.0185 34.8629Z" fill="#029147"/>
<path d="M42.5647 33.9159L38.3224 30.8218L38.2105 30.7397L37.7035 30.367L38.1136 30.0091L38.2776 29.8674L42.7138 26.0948L43.355 25.5431L43.5861 25.3418H42.4379H36.4137H36.0484L35.6085 25.9532L35.5414 26.0352L29.8228 33.9159L29.7557 34.0128L29.2786 34.6615H43.5936L43.4221 34.5422L42.5647 33.9159ZM31.3065 33.9159C33.9196 32.0535 35.7078 29.2496 36.2944 26.0948H41.5656L37.1742 29.8227C37.0921 29.9032 37.0297 30.0016 36.992 30.1102C36.9542 30.2188 36.9421 30.3346 36.9565 30.4487C36.9709 30.5627 37.0116 30.6719 37.0752 30.7677C37.1388 30.8634 37.2237 30.9432 37.3233 31.0007L41.2972 33.901L31.3065 33.9159Z" fill="#029147"/>
<path d="M43.5861 35.4148H29.2711C29.1072 35.4165 28.9474 35.3641 28.8163 35.2657C28.7128 35.1822 28.6352 35.071 28.5926 34.9451C28.554 34.8223 28.5413 34.6928 28.5553 34.5649C28.561 34.4731 28.5848 34.3833 28.6255 34.3008C28.6662 34.2184 28.7229 34.1448 28.7923 34.0844C28.8616 34.0241 28.9424 33.9781 29.0297 33.9492C29.117 33.9203 29.2092 33.9091 29.3009 33.9162H41.2971L37.3232 31.0159C37.2237 30.9584 37.1388 30.8787 37.0751 30.7829C37.0115 30.6872 36.9709 30.578 36.9564 30.4639C36.942 30.3499 36.9541 30.234 36.9919 30.1254C37.0297 30.0168 37.092 29.9184 37.1741 29.8379L41.5656 26.0952H35.9439C35.8227 26.0841 35.7067 26.0403 35.6084 25.9684L35.5637 25.9311C35.4773 25.8452 35.4117 25.7406 35.3719 25.6254C35.3322 25.5102 35.3194 25.3874 35.3345 25.2664C35.3496 25.1455 35.3923 25.0296 35.4591 24.9277C35.526 24.8258 35.6153 24.7406 35.7203 24.6786C35.8225 24.6291 35.9347 24.6036 36.0483 24.604H43.5861C43.7341 24.6032 43.8791 24.6464 44.0025 24.7283C44.1259 24.8101 44.2222 24.9269 44.279 25.0637C44.3358 25.2004 44.3505 25.351 44.3214 25.4962C44.2923 25.6414 44.2206 25.7747 44.1154 25.8789L38.8964 30.3524L43.9663 34.0803C44.0853 34.1711 44.1742 34.2958 44.2214 34.4379C44.2685 34.58 44.2718 34.7331 44.2308 34.8771C44.1898 35.0211 44.1063 35.1494 43.9913 35.2453C43.8763 35.3412 43.7351 35.4003 43.5861 35.4148Z" fill="#029147"/>
<path d="M28.123 22.1286L23.8061 26.4454C23.7368 26.5153 23.6543 26.5708 23.5635 26.6086C23.4726 26.6465 23.3752 26.666 23.2768 26.666C23.1783 26.666 23.0809 26.6465 22.99 26.6086C22.8992 26.5708 22.8167 26.5153 22.7474 26.4454L20.7045 24.164C20.0633 23.4184 21.1221 22.3895 21.7632 23.1127C21.8453 23.2022 21.9273 23.2991 22.0167 23.3886L23.3066 24.8275C24.2087 23.9179 25.1258 23.0083 26.0354 22.0987L27.0643 21.0699C27.2047 20.9295 27.3951 20.8506 27.5936 20.8506C27.7922 20.8506 27.9826 20.9295 28.123 21.0699C28.2634 21.2102 28.3423 21.4007 28.3423 21.5992C28.3423 21.7978 28.2634 21.9882 28.123 22.1286Z" fill="#029147"/>
<path d="M36.1155 23.642C36.092 22.1028 35.7656 20.5834 35.1549 19.1704C34.5442 17.7574 33.6611 16.4785 32.5562 15.4068C30.3246 13.2423 27.3246 12.053 24.2162 12.1005C22.677 12.124 21.1576 12.4504 19.7446 13.0611C18.3316 13.6718 17.0527 14.5549 15.981 15.6598C13.8166 17.8914 12.6273 20.8914 12.6747 23.9998C12.6747 24.1937 12.6747 24.3801 12.6747 24.5739C12.6747 24.7678 12.6747 25.0735 12.7344 25.3195C12.794 25.5655 12.8015 25.819 12.8387 26.0651C13.1282 27.6693 13.7484 29.1957 14.6597 30.5473C15.571 31.8989 16.7536 33.0461 18.1323 33.916C18.2665 34.0054 18.4082 34.0875 18.5498 34.1695L18.9897 34.408C19.0538 34.4464 19.1211 34.4788 19.191 34.505C19.452 34.6317 19.7129 34.751 19.9813 34.8554C22.7254 35.9699 25.7906 35.9992 28.5554 34.9374C28.7865 34.8554 29.0102 34.7585 29.2339 34.6541C29.713 34.4383 30.1764 34.1892 30.6207 33.9085C32.0022 33.0475 33.1892 31.908 34.1058 30.5627C35.0223 29.2174 35.6484 27.6957 35.944 26.0949C35.9888 25.8489 36.0261 25.6028 36.0484 25.3493C36.0708 25.0958 36.1006 24.8498 36.1081 24.6038C36.1118 24.5367 36.1118 24.4695 36.1081 24.4025C36.1081 24.2832 36.1081 24.1639 36.1081 24.0371C36.1081 23.9104 36.123 23.7613 36.1155 23.642ZM18.6393 31.6345L19.7427 25.2226L15.0755 20.682L21.5172 19.7501L24.3951 13.9122L27.2805 19.7501L33.7148 20.682L29.0773 25.2226L30.1808 31.6345L24.4175 28.6075L18.6393 31.6345Z" fill="#029147"/>
<path d="M18.8704 33.8789L18.7287 33.7968C17.3059 32.9847 16.0798 31.8687 15.1378 30.5285C14.1957 29.1882 13.5609 27.6566 13.2786 26.0429V25.9087H13.2338C13.1356 25.9806 13.0196 26.0244 12.8983 26.0354C13.1878 27.6397 13.8079 29.1661 14.7193 30.5177C15.6306 31.8693 16.8132 33.0165 18.1919 33.8863H18.9375L18.8704 33.8789ZM18.7287 33.7968C17.3059 32.9847 16.0798 31.8687 15.1378 30.5285C14.1957 29.1882 13.5609 27.6566 13.2786 26.0429V25.9087H13.2338C13.1356 25.9806 13.0196 26.0244 12.8983 26.0354C13.1878 27.6397 13.8079 29.1661 14.7193 30.5177C15.6306 31.8693 16.8132 33.0165 18.1919 33.8863H18.8405L18.8927 33.849L18.7287 33.7968ZM18.7287 33.7968C17.3059 32.9847 16.0798 31.8687 15.1378 30.5285C14.1957 29.1882 13.5609 27.6566 13.2786 26.0429V25.9087H13.2338C13.1356 25.9806 13.0196 26.0244 12.8983 26.0354C13.1878 27.6397 13.8079 29.1661 14.7193 30.5177C15.6306 31.8693 16.8132 33.0165 18.1919 33.8863H18.8405L18.8927 33.849L18.7287 33.7968ZM18.7287 33.7968C17.3059 32.9847 16.0798 31.8687 15.1378 30.5285C14.1957 29.1882 13.5609 27.6566 13.2786 26.0429V25.9087H13.2338C13.1356 25.9806 13.0196 26.0244 12.8983 26.0354C13.1878 27.6397 13.8079 29.1661 14.7193 30.5177C15.6306 31.8693 16.8132 33.0165 18.1919 33.8863H18.8405L18.8927 33.849L18.7287 33.7968ZM18.7287 33.7968C17.3059 32.9847 16.0798 31.8687 15.1378 30.5285C14.1957 29.1882 13.5609 27.6566 13.2786 26.0429V25.9087H13.2338C13.1356 25.9806 13.0196 26.0244 12.8983 26.0354C13.1878 27.6397 13.8079 29.1661 14.7193 30.5177C15.6306 31.8693 16.8132 33.0165 18.1919 33.8863H18.8405L18.8927 33.849L18.7287 33.7968ZM18.7287 33.7968C17.3059 32.9847 16.0798 31.8687 15.1378 30.5285C14.1957 29.1882 13.5609 27.6566 13.2786 26.0429V25.9087H13.2338C13.1356 25.9806 13.0196 26.0244 12.8983 26.0354C13.1878 27.6397 13.8079 29.1661 14.7193 30.5177C15.6306 31.8693 16.8132 33.0165 18.1919 33.8863H18.8405L18.8927 33.849L18.7287 33.7968ZM18.7287 33.7968C17.3059 32.9847 16.0798 31.8687 15.1378 30.5285C14.1957 29.1882 13.5609 27.6566 13.2786 26.0429V25.9087H13.2338C13.1356 25.9806 13.0196 26.0244 12.8983 26.0354C13.1878 27.6397 13.8079 29.1661 14.7193 30.5177C15.6306 31.8693 16.8132 33.0165 18.1919 33.8863H18.8405L18.8927 33.849L18.7287 33.7968ZM18.7287 33.7968C17.3059 32.9847 16.0798 31.8687 15.1378 30.5285C14.1957 29.1882 13.5609 27.6566 13.2786 26.0429V25.9087H13.2338C13.1356 25.9806 13.0196 26.0244 12.8983 26.0354C13.1878 27.6397 13.8079 29.1661 14.7193 30.5177C15.6306 31.8693 16.8132 33.0165 18.1919 33.8863H18.8405L18.8927 33.849L18.7287 33.7968ZM18.7287 33.7968C17.3059 32.9847 16.0798 31.8687 15.1378 30.5285C14.1957 29.1882 13.5609 27.6566 13.2786 26.0429V25.9087H13.2338C13.1356 25.9806 13.0196 26.0244 12.8983 26.0354C13.1878 27.6397 13.8079 29.1661 14.7193 30.5177C15.6306 31.8693 16.8132 33.0165 18.1919 33.8863H18.8405L18.8927 33.849L18.7287 33.7968ZM18.7287 33.7968C17.3059 32.9847 16.0798 31.8687 15.1378 30.5285C14.1957 29.1882 13.5609 27.6566 13.2786 26.0429V25.9087H13.2338C13.1356 25.9806 13.0196 26.0244 12.8983 26.0354C13.1878 27.6397 13.8079 29.1661 14.7193 30.5177C15.6306 31.8693 16.8132 33.0165 18.1919 33.8863H18.8405L18.8927 33.849L18.7287 33.7968ZM18.7287 33.7968C17.3059 32.9847 16.0798 31.8687 15.1378 30.5285C14.1957 29.1882 13.5609 27.6566 13.2786 26.0429V25.9087H13.2338C13.1356 25.9806 13.0196 26.0244 12.8983 26.0354C13.1878 27.6397 13.8079 29.1661 14.7193 30.5177C15.6306 31.8693 16.8132 33.0165 18.1919 33.8863H18.8405L18.8927 33.849L18.7287 33.7968ZM18.7287 33.7968C17.3059 32.9847 16.0798 31.8687 15.1378 30.5285C14.1957 29.1882 13.5609 27.6566 13.2786 26.0429V25.9087H13.2338C13.1356 25.9806 13.0196 26.0244 12.8983 26.0354C13.1878 27.6397 13.8079 29.1661 14.7193 30.5177C15.6306 31.8693 16.8132 33.0165 18.1919 33.8863H18.8405L18.8927 33.849L18.7287 33.7968ZM18.7287 33.7968C17.3059 32.9847 16.0798 31.8687 15.1378 30.5285C14.1957 29.1882 13.5609 27.6566 13.2786 26.0429V25.9087H13.2338C13.1356 25.9806 13.0196 26.0244 12.8983 26.0354C13.1878 27.6397 13.8079 29.1661 14.7193 30.5177C15.6306 31.8693 16.8132 33.0165 18.1919 33.8863H18.8405L18.8927 33.849L18.7287 33.7968ZM18.7287 33.7968C17.3059 32.9847 16.0798 31.8687 15.1378 30.5285C14.1957 29.1882 13.5609 27.6566 13.2786 26.0429V25.9087H13.2338C13.1356 25.9806 13.0196 26.0244 12.8983 26.0354C13.1878 27.6397 13.8079 29.1661 14.7193 30.5177C15.6306 31.8693 16.8132 33.0165 18.1919 33.8863H18.8405L18.8927 33.849L18.7287 33.7968ZM18.7287 33.7968C17.3059 32.9847 16.0798 31.8687 15.1378 30.5285C14.1957 29.1882 13.5609 27.6566 13.2786 26.0429V25.9087H13.2338C13.1356 25.9806 13.0196 26.0244 12.8983 26.0354C13.1878 27.6397 13.8079 29.1661 14.7193 30.5177C15.6306 31.8693 16.8132 33.0165 18.1919 33.8863H18.8405L18.8927 33.849L18.7287 33.7968ZM18.7287 33.7968C17.3059 32.9847 16.0798 31.8687 15.1378 30.5285C14.1957 29.1882 13.5609 27.6566 13.2786 26.0429V25.9087H13.2338C13.1356 25.9806 13.0196 26.0244 12.8983 26.0354C13.1878 27.6397 13.8079 29.1661 14.7193 30.5177C15.6306 31.8693 16.8132 33.0165 18.1919 33.8863H18.8405L18.8927 33.849L18.7287 33.7968ZM18.7287 33.7968C17.3059 32.9847 16.0798 31.8687 15.1378 30.5285C14.1957 29.1882 13.5609 27.6566 13.2786 26.0429V25.9087H13.2338C13.1356 25.9806 13.0196 26.0244 12.8983 26.0354C13.1878 27.6397 13.8079 29.1661 14.7193 30.5177C15.6306 31.8693 16.8132 33.0165 18.1919 33.8863H18.8405L18.8927 33.849L18.7287 33.7968ZM18.7287 33.7968C17.3059 32.9847 16.0798 31.8687 15.1378 30.5285C14.1957 29.1882 13.5609 27.6566 13.2786 26.0429V25.9087H13.2338C13.1356 25.9806 13.0196 26.0244 12.8983 26.0354C13.1878 27.6397 13.8079 29.1661 14.7193 30.5177C15.6306 31.8693 16.8132 33.0165 18.1919 33.8863H18.8405L18.8927 33.849L18.7287 33.7968ZM18.7287 33.7968C17.3059 32.9847 16.0798 31.8687 15.1378 30.5285C14.1957 29.1882 13.5609 27.6566 13.2786 26.0429V25.9087H13.2338C13.1356 25.9806 13.0196 26.0244 12.8983 26.0354C13.1878 27.6397 13.8079 29.1661 14.7193 30.5177C15.6306 31.8693 16.8132 33.0165 18.1919 33.8863H18.8405L18.8927 33.849L18.7287 33.7968ZM18.7287 33.7968C17.3059 32.9847 16.0798 31.8687 15.1378 30.5285C14.1957 29.1882 13.5609 27.6566 13.2786 26.0429V25.9087H13.2338C13.1356 25.9806 13.0196 26.0244 12.8983 26.0354C13.1878 27.6397 13.8079 29.1661 14.7193 30.5177C15.6306 31.8693 16.8132 33.0165 18.1919 33.8863H18.8405L18.8927 33.849L18.7287 33.7968ZM18.7287 33.7968C17.3059 32.9847 16.0798 31.8687 15.1378 30.5285C14.1957 29.1882 13.5609 27.6566 13.2786 26.0429V25.9087H13.2338C13.1356 25.9806 13.0196 26.0244 12.8983 26.0354C13.1878 27.6397 13.8079 29.1661 14.7193 30.5177C15.6306 31.8693 16.8132 33.0165 18.1919 33.8863H18.8405L18.8927 33.849L18.7287 33.7968ZM18.7287 33.7968C17.3059 32.9847 16.0798 31.8687 15.1378 30.5285C14.1957 29.1882 13.5609 27.6566 13.2786 26.0429V25.9087H13.2338C13.1356 25.9806 13.0196 26.0244 12.8983 26.0354C13.1878 27.6397 13.8079 29.1661 14.7193 30.5177C15.6306 31.8693 16.8132 33.0165 18.1919 33.8863H18.8405L18.8927 33.849L18.7287 33.7968ZM18.7287 33.7968C17.3059 32.9847 16.0798 31.8687 15.1378 30.5285C14.1957 29.1882 13.5609 27.6566 13.2786 26.0429V25.9087H13.2338C13.1356 25.9806 13.0196 26.0244 12.8983 26.0354C13.1878 27.6397 13.8079 29.1661 14.7193 30.5177C15.6306 31.8693 16.8132 33.0165 18.1919 33.8863H18.8405L18.8927 33.849L18.7287 33.7968ZM18.7287 33.7968C17.3059 32.9847 16.0798 31.8687 15.1378 30.5285C14.1957 29.1882 13.5609 27.6566 13.2786 26.0429V25.9087H13.2338C13.1356 25.9806 13.0196 26.0244 12.8983 26.0354C13.1878 27.6397 13.8079 29.1661 14.7193 30.5177C15.6306 31.8693 16.8132 33.0165 18.1919 33.8863H18.8405L18.8927 33.849L18.7287 33.7968ZM18.7287 33.7968C17.3059 32.9847 16.0798 31.8687 15.1378 30.5285C14.1957 29.1882 13.5609 27.6566 13.2786 26.0429V25.9087H13.2338C13.1356 25.9806 13.0196 26.0244 12.8983 26.0354C13.1878 27.6397 13.8079 29.1661 14.7193 30.5177C15.6306 31.8693 16.8132 33.0165 18.1919 33.8863H18.8405L18.8927 33.849L18.7287 33.7968ZM18.7287 33.7968C17.3059 32.9847 16.0798 31.8687 15.1378 30.5285C14.1957 29.1882 13.5609 27.6566 13.2786 26.0429V25.9087H13.2338C13.1356 25.9806 13.0196 26.0244 12.8983 26.0354C13.1878 27.6397 13.8079 29.1661 14.7193 30.5177C15.6306 31.8693 16.8132 33.0165 18.1919 33.8863H18.8405L18.8927 33.849L18.7287 33.7968ZM18.7287 33.7968C17.3059 32.9847 16.0798 31.8687 15.1378 30.5285C14.1957 29.1882 13.5609 27.6566 13.2786 26.0429V25.9087H13.2338C13.1356 25.9806 13.0196 26.0244 12.8983 26.0354C13.1878 27.6397 13.8079 29.1661 14.7193 30.5177C15.6306 31.8693 16.8132 33.0165 18.1919 33.8863H18.8405L18.8927 33.849L18.7287 33.7968ZM18.7287 33.7968C17.3059 32.9847 16.0798 31.8687 15.1378 30.5285C14.1957 29.1882 13.5609 27.6566 13.2786 26.0429V25.9087H13.2338C13.1356 25.9806 13.0196 26.0244 12.8983 26.0354C13.1878 27.6397 13.8079 29.1661 14.7193 30.5177C15.6306 31.8693 16.8132 33.0165 18.1919 33.8863H18.8405L18.8927 33.849L18.7287 33.7968ZM18.7287 33.7968C17.3059 32.9847 16.0798 31.8687 15.1378 30.5285C14.1957 29.1882 13.5609 27.6566 13.2786 26.0429V25.9087H13.2338C13.1356 25.9806 13.0196 26.0244 12.8983 26.0354C13.1878 27.6397 13.8079 29.1661 14.7193 30.5177C15.6306 31.8693 16.8132 33.0165 18.1919 33.8863H18.8405L18.8927 33.849L18.7287 33.7968ZM18.7287 33.7968C17.3059 32.9847 16.0798 31.8687 15.1378 30.5285C14.1957 29.1882 13.5609 27.6566 13.2786 26.0429V25.9087H13.2338C13.1356 25.9806 13.0196 26.0244 12.8983 26.0354C13.1878 27.6397 13.8079 29.1661 14.7193 30.5177C15.6306 31.8693 16.8132 33.0165 18.1919 33.8863H18.8405L18.8927 33.849L18.7287 33.7968ZM18.7287 33.7968C17.3059 32.9847 16.0798 31.8687 15.1378 30.5285C14.1957 29.1882 13.5609 27.6566 13.2786 26.0429V25.9087H13.2338C13.1356 25.9806 13.0196 26.0244 12.8983 26.0354C13.1878 27.6397 13.8079 29.1661 14.7193 30.5177C15.6306 31.8693 16.8132 33.0165 18.1919 33.8863H18.8405L18.8927 33.849L18.7287 33.7968ZM18.7287 33.7968C17.3059 32.9847 16.0798 31.8687 15.1378 30.5285C14.1957 29.1882 13.5609 27.6566 13.2786 26.0429V25.9087H13.2338C13.1356 25.9806 13.0196 26.0244 12.8983 26.0354C13.1878 27.6397 13.8079 29.1661 14.7193 30.5177C15.6306 31.8693 16.8132 33.0165 18.1919 33.8863H18.8405L18.8927 33.849L18.7287 33.7968ZM28.533 12.63C26.6599 11.9504 24.6478 11.7451 22.6761 12.0323C20.7044 12.3195 18.8344 13.0904 17.2331 14.2761C15.6317 15.4617 14.3488 17.0254 13.4988 18.8275C12.6487 20.6296 12.258 22.6141 12.3615 24.6039C12.3615 24.85 12.3615 25.1035 12.4137 25.3495C12.4659 25.5955 12.4733 25.849 12.5181 26.0951C12.7666 27.5897 13.3007 29.0225 14.0912 30.315C14.9684 31.7518 16.1398 32.9867 17.5283 33.9385C17.8415 34.1547 18.1621 34.3486 18.4901 34.535L18.7734 34.6841L18.8554 34.7288C19.1835 34.9003 19.5115 35.0494 19.8545 35.1911C21.9757 36.0692 24.3025 36.3277 26.5647 35.9366C27.7999 35.7236 28.9915 35.308 30.0912 34.7064C30.5077 34.4853 30.9088 34.2362 31.2916 33.9609C33.92 32.0906 35.7149 29.2685 36.2944 26.0951C36.3391 25.849 36.3839 25.603 36.4137 25.3495C36.4435 25.096 36.4659 24.85 36.4808 24.6039V24.0522C36.4691 21.5673 35.7029 19.1446 34.2836 17.1048C32.8643 15.0651 30.8589 13.5046 28.533 12.63ZM35.5637 25.8938C35.5716 25.9331 35.5716 25.9737 35.5637 26.0131C35.262 27.6615 34.6022 29.2235 33.6308 30.5891C32.6595 31.9546 31.4003 33.0904 29.9421 33.9161L29.7706 34.0131C29.383 34.2179 28.9848 34.402 28.5777 34.5648L28.1975 34.7064C25.5374 35.6221 22.633 35.5239 20.0409 34.4306C19.78 34.3187 19.5116 34.1995 19.2581 34.0653L18.9673 33.9161L18.9002 33.8789L18.7585 33.7968C17.3358 32.9847 16.1097 31.8687 15.1676 30.5285C14.2256 29.1882 13.5907 27.6566 13.3084 26.0429V25.9087C13.2354 25.4945 13.1881 25.0762 13.1667 24.6561C13.0602 22.9247 13.354 21.192 14.0252 19.5924C14.6964 17.9928 15.727 16.5693 17.0371 15.4322C18.3471 14.2952 19.9015 13.4752 21.5796 13.0358C23.2578 12.5964 25.0146 12.5494 26.7138 12.8984C29.2633 13.441 31.5517 14.8366 33.2013 16.8549C34.8509 18.8731 35.7631 21.3935 35.7874 24C35.7987 24.2136 35.7987 24.4276 35.7874 24.6412C35.7435 25.0636 35.6687 25.4823 35.5637 25.8938ZM18.7287 33.7968C17.3059 32.9847 16.0798 31.8687 15.1378 30.5285C14.1957 29.1882 13.5609 27.6566 13.2786 26.0429V25.9087H13.2338C13.1356 25.9806 13.0196 26.0244 12.8983 26.0354C13.1878 27.6397 13.8079 29.1661 14.7193 30.5177C15.6306 31.8693 16.8132 33.0165 18.1919 33.8863H18.8405L18.8927 33.849L18.7287 33.7968ZM18.7287 33.7968C17.3059 32.9847 16.0798 31.8687 15.1378 30.5285C14.1957 29.1882 13.5609 27.6566 13.2786 26.0429V25.9087H13.2338C13.1356 25.9806 13.0196 26.0244 12.8983 26.0354C13.1878 27.6397 13.8079 29.1661 14.7193 30.5177C15.6306 31.8693 16.8132 33.0165 18.1919 33.8863H18.8405L18.8927 33.849L18.7287 33.7968ZM18.7287 33.7968C17.3059 32.9847 16.0798 31.8687 15.1378 30.5285C14.1957 29.1882 13.5609 27.6566 13.2786 26.0429V25.9087H13.2338C13.1356 25.9806 13.0196 26.0244 12.8983 26.0354C13.1878 27.6397 13.8079 29.1661 14.7193 30.5177C15.6306 31.8693 16.8132 33.0165 18.1919 33.8863H18.8405L18.8927 33.849L18.7287 33.7968ZM18.7287 33.7968C17.3059 32.9847 16.0798 31.8687 15.1378 30.5285C14.1957 29.1882 13.5609 27.6566 13.2786 26.0429V25.9087H13.2338C13.1356 25.9806 13.0196 26.0244 12.8983 26.0354C13.1878 27.6397 13.8079 29.1661 14.7193 30.5177C15.6306 31.8693 16.8132 33.0165 18.1919 33.8863H18.8405L18.8927 33.849L18.7287 33.7968ZM18.7287 33.7968C17.3059 32.9847 16.0798 31.8687 15.1378 30.5285C14.1957 29.1882 13.5609 27.6566 13.2786 26.0429V25.9087H13.2338C13.1356 25.9806 13.0196 26.0244 12.8983 26.0354C13.1878 27.6397 13.8079 29.1661 14.7193 30.5177C15.6306 31.8693 16.8132 33.0165 18.1919 33.8863H18.8405L18.8927 33.849L18.7287 33.7968ZM18.7287 33.7968C17.3059 32.9847 16.0798 31.8687 15.1378 30.5285C14.1957 29.1882 13.5609 27.6566 13.2786 26.0429V25.9087H13.2338C13.1356 25.9806 13.0196 26.0244 12.8983 26.0354C13.1878 27.6397 13.8079 29.1661 14.7193 30.5177C15.6306 31.8693 16.8132 33.0165 18.1919 33.8863H18.8405L18.8927 33.849L18.7287 33.7968ZM18.7287 33.7968C17.3059 32.9847 16.0798 31.8687 15.1378 30.5285C14.1957 29.1882 13.5609 27.6566 13.2786 26.0429V25.9087H13.2338C13.1356 25.9806 13.0196 26.0244 12.8983 26.0354C13.1878 27.6397 13.8079 29.1661 14.7193 30.5177C15.6306 31.8693 16.8132 33.0165 18.1919 33.8863H18.8405L18.8927 33.849L18.7287 33.7968ZM18.7287 33.7968C17.3059 32.9847 16.0798 31.8687 15.1378 30.5285C14.1957 29.1882 13.5609 27.6566 13.2786 26.0429V25.9087H13.2338C13.1356 25.9806 13.0196 26.0244 12.8983 26.0354C13.1878 27.6397 13.8079 29.1661 14.7193 30.5177C15.6306 31.8693 16.8132 33.0165 18.1919 33.8863H18.8405L18.8927 33.849L18.7287 33.7968ZM18.7287 33.7968C17.3059 32.9847 16.0798 31.8687 15.1378 30.5285C14.1957 29.1882 13.5609 27.6566 13.2786 26.0429V25.9087H13.2338C13.1356 25.9806 13.0196 26.0244 12.8983 26.0354C13.1878 27.6397 13.8079 29.1661 14.7193 30.5177C15.6306 31.8693 16.8132 33.0165 18.1919 33.8863H18.8405L18.8927 33.849L18.7287 33.7968ZM18.7287 33.7968C17.3059 32.9847 16.0798 31.8687 15.1378 30.5285C14.1957 29.1882 13.5609 27.6566 13.2786 26.0429V25.9087H13.2338C13.1356 25.9806 13.0196 26.0244 12.8983 26.0354C13.1878 27.6397 13.8079 29.1661 14.7193 30.5177C15.6306 31.8693 16.8132 33.0165 18.1919 33.8863H18.8405L18.8927 33.849L18.7287 33.7968ZM18.7287 33.7968C17.3059 32.9847 16.0798 31.8687 15.1378 30.5285C14.1957 29.1882 13.5609 27.6566 13.2786 26.0429V25.9087H13.2338C13.1356 25.9806 13.0196 26.0244 12.8983 26.0354C13.1878 27.6397 13.8079 29.1661 14.7193 30.5177C15.6306 31.8693 16.8132 33.0165 18.1919 33.8863H18.8405L18.8927 33.849L18.7287 33.7968ZM18.7287 33.7968C17.3059 32.9847 16.0798 31.8687 15.1378 30.5285C14.1957 29.1882 13.5609 27.6566 13.2786 26.0429V25.9087H13.2338C13.1356 25.9806 13.0196 26.0244 12.8983 26.0354C13.1878 27.6397 13.8079 29.1661 14.7193 30.5177C15.6306 31.8693 16.8132 33.0165 18.1919 33.8863H18.8405L18.8927 33.849L18.7287 33.7968ZM18.7287 33.7968C17.3059 32.9847 16.0798 31.8687 15.1378 30.5285C14.1957 29.1882 13.5609 27.6566 13.2786 26.0429V25.9087H13.2338C13.1356 25.9806 13.0196 26.0244 12.8983 26.0354C13.1878 27.6397 13.8079 29.1661 14.7193 30.5177C15.6306 31.8693 16.8132 33.0165 18.1919 33.8863H18.8405L18.8927 33.849L18.7287 33.7968ZM18.7287 33.7968C17.3059 32.9847 16.0798 31.8687 15.1378 30.5285C14.1957 29.1882 13.5609 27.6566 13.2786 26.0429V25.9087H13.2338C13.1356 25.9806 13.0196 26.0244 12.8983 26.0354C13.1878 27.6397 13.8079 29.1661 14.7193 30.5177C15.6306 31.8693 16.8132 33.0165 18.1919 33.8863H18.8405L18.8927 33.849L18.7287 33.7968ZM18.7287 33.7968C17.3059 32.9847 16.0798 31.8687 15.1378 30.5285C14.1957 29.1882 13.5609 27.6566 13.2786 26.0429V25.9087H13.2338C13.1356 25.9806 13.0196 26.0244 12.8983 26.0354C13.1878 27.6397 13.8079 29.1661 14.7193 30.5177C15.6306 31.8693 16.8132 33.0165 18.1919 33.8863H18.8405L18.8927 33.849L18.7287 33.7968ZM18.7287 33.7968C17.3059 32.9847 16.0798 31.8687 15.1378 30.5285C14.1957 29.1882 13.5609 27.6566 13.2786 26.0429V25.9087H13.2338C13.1356 25.9806 13.0196 26.0244 12.8983 26.0354C13.1878 27.6397 13.8079 29.1661 14.7193 30.5177C15.6306 31.8693 16.8132 33.0165 18.1919 33.8863H18.8405L18.8927 33.849L18.7287 33.7968ZM18.7287 33.7968C17.3059 32.9847 16.0798 31.8687 15.1378 30.5285C14.1957 29.1882 13.5609 27.6566 13.2786 26.0429V25.9087H13.2338C13.1356 25.9806 13.0196 26.0244 12.8983 26.0354C13.1878 27.6397 13.8079 29.1661 14.7193 30.5177C15.6306 31.8693 16.8132 33.0165 18.1919 33.8863H18.8405L18.8927 33.849L18.7287 33.7968ZM18.7287 33.7968C17.3059 32.9847 16.0798 31.8687 15.1378 30.5285C14.1957 29.1882 13.5609 27.6566 13.2786 26.0429V25.9087H13.2338C13.1356 25.9806 13.0196 26.0244 12.8983 26.0354C13.1878 27.6397 13.8079 29.1661 14.7193 30.5177C15.6306 31.8693 16.8132 33.0165 18.1919 33.8863H18.8405L18.8927 33.849L18.7287 33.7968ZM18.7287 33.7968C17.3059 32.9847 16.0798 31.8687 15.1378 30.5285C14.1957 29.1882 13.5609 27.6566 13.2786 26.0429V25.9087H13.2338C13.1356 25.9806 13.0196 26.0244 12.8983 26.0354C13.1878 27.6397 13.8079 29.1661 14.7193 30.5177C15.6306 31.8693 16.8132 33.0165 18.1919 33.8863H18.8405L18.8927 33.849L18.7287 33.7968ZM18.7287 33.7968C17.3059 32.9847 16.0798 31.8687 15.1378 30.5285C14.1957 29.1882 13.5609 27.6566 13.2786 26.0429V25.9087H13.2338C13.1356 25.9806 13.0196 26.0244 12.8983 26.0354C13.1878 27.6397 13.8079 29.1661 14.7193 30.5177C15.6306 31.8693 16.8132 33.0165 18.1919 33.8863H18.8405L18.8927 33.849L18.7287 33.7968ZM18.7287 33.7968C17.3059 32.9847 16.0798 31.8687 15.1378 30.5285C14.1957 29.1882 13.5609 27.6566 13.2786 26.0429V25.9087H13.2338C13.1356 25.9806 13.0196 26.0244 12.8983 26.0354C13.1878 27.6397 13.8079 29.1661 14.7193 30.5177C15.6306 31.8693 16.8132 33.0165 18.1919 33.8863H18.8405L18.8927 33.849L18.7287 33.7968ZM18.7287 33.7968C17.3059 32.9847 16.0798 31.8687 15.1378 30.5285C14.1957 29.1882 13.5609 27.6566 13.2786 26.0429V25.9087H13.2338C13.1356 25.9806 13.0196 26.0244 12.8983 26.0354C13.1878 27.6397 13.8079 29.1661 14.7193 30.5177C15.6306 31.8693 16.8132 33.0165 18.1919 33.8863H18.8405L18.8927 33.849L18.7287 33.7968ZM18.7287 33.7968C17.3059 32.9847 16.0798 31.8687 15.1378 30.5285C14.1957 29.1882 13.5609 27.6566 13.2786 26.0429V25.9087H13.2338C13.1356 25.9806 13.0196 26.0244 12.8983 26.0354C13.1878 27.6397 13.8079 29.1661 14.7193 30.5177C15.6306 31.8693 16.8132 33.0165 18.1919 33.8863H18.8405L18.8927 33.849L18.7287 33.7968ZM18.7287 33.7968C17.3059 32.9847 16.0798 31.8687 15.1378 30.5285C14.1957 29.1882 13.5609 27.6566 13.2786 26.0429V25.9087H13.2338C13.1356 25.9806 13.0196 26.0244 12.8983 26.0354C13.1878 27.6397 13.8079 29.1661 14.7193 30.5177C15.6306 31.8693 16.8132 33.0165 18.1919 33.8863H18.8405L18.8927 33.849L18.7287 33.7968ZM18.7287 33.7968C17.3059 32.9847 16.0798 31.8687 15.1378 30.5285C14.1957 29.1882 13.5609 27.6566 13.2786 26.0429V25.9087H13.2338C13.1356 25.9806 13.0196 26.0244 12.8983 26.0354C13.1878 27.6397 13.8079 29.1661 14.7193 30.5177C15.6306 31.8693 16.8132 33.0165 18.1919 33.8863H18.8405L18.8927 33.849L18.7287 33.7968ZM18.7287 33.7968C17.3059 32.9847 16.0798 31.8687 15.1378 30.5285C14.1957 29.1882 13.5609 27.6566 13.2786 26.0429V25.9087H13.2338C13.1356 25.9806 13.0196 26.0244 12.8983 26.0354C13.1878 27.6397 13.8079 29.1661 14.7193 30.5177C15.6306 31.8693 16.8132 33.0165 18.1919 33.8863H18.8405L18.8927 33.849L18.7287 33.7968ZM18.7287 33.7968C17.3059 32.9847 16.0798 31.8687 15.1378 30.5285C14.1957 29.1882 13.5609 27.6566 13.2786 26.0429V25.9087H13.2338C13.1356 25.9806 13.0196 26.0244 12.8983 26.0354C13.1878 27.6397 13.8079 29.1661 14.7193 30.5177C15.6306 31.8693 16.8132 33.0165 18.1919 33.8863H18.8405L18.8927 33.849L18.7287 33.7968ZM18.7287 33.7968C17.3059 32.9847 16.0798 31.8687 15.1378 30.5285C14.1957 29.1882 13.5609 27.6566 13.2786 26.0429V25.9087H13.2338C13.1356 25.9806 13.0196 26.0244 12.8983 26.0354C13.1878 27.6397 13.8079 29.1661 14.7193 30.5177C15.6306 31.8693 16.8132 33.0165 18.1919 33.8863H18.8405L18.8927 33.849L18.7287 33.7968ZM18.7287 33.7968C17.3059 32.9847 16.0798 31.8687 15.1378 30.5285C14.1957 29.1882 13.5609 27.6566 13.2786 26.0429V25.9087H13.2338C13.1356 25.9806 13.0196 26.0244 12.8983 26.0354C13.1878 27.6397 13.8079 29.1661 14.7193 30.5177C15.6306 31.8693 16.8132 33.0165 18.1919 33.8863H18.8405L18.8927 33.849L18.7287 33.7968ZM18.7287 33.7968C17.3059 32.9847 16.0798 31.8687 15.1378 30.5285C14.1957 29.1882 13.5609 27.6566 13.2786 26.0429V25.9087H13.2338C13.1356 25.9806 13.0196 26.0244 12.8983 26.0354C13.1878 27.6397 13.8079 29.1661 14.7193 30.5177C15.6306 31.8693 16.8132 33.0165 18.1919 33.8863H18.8405L18.8927 33.849L18.7287 33.7968ZM18.7287 33.7968C17.3059 32.9847 16.0798 31.8687 15.1378 30.5285C14.1957 29.1882 13.5609 27.6566 13.2786 26.0429V25.9087H13.2338C13.1356 25.9806 13.0196 26.0244 12.8983 26.0354C13.1878 27.6397 13.8079 29.1661 14.7193 30.5177C15.6306 31.8693 16.8132 33.0165 18.1919 33.8863H18.8405L18.8927 33.849L18.7287 33.7968Z" fill="#029147"/>
<path d="M28.123 22.1286L23.8061 26.4454C23.7368 26.5153 23.6543 26.5708 23.5635 26.6086C23.4726 26.6465 23.3752 26.666 23.2768 26.666C23.1783 26.666 23.0809 26.6465 22.99 26.6086C22.8992 26.5708 22.8167 26.5153 22.7474 26.4454L20.7045 24.164C20.0633 23.4184 21.1221 22.3895 21.7632 23.1127C21.8453 23.2022 21.9273 23.2991 22.0167 23.3886L23.3066 24.8275C24.2087 23.9179 25.1258 23.0083 26.0354 22.0987L27.0643 21.0699C27.2047 20.9295 27.3951 20.8506 27.5936 20.8506C27.7922 20.8506 27.9826 20.9295 28.123 21.0699C28.2634 21.2102 28.3423 21.4007 28.3423 21.5992C28.3423 21.7978 28.2634 21.9882 28.123 22.1286Z" fill="#029147"/>
<path d="M27.5862 21.6216L23.2693 25.9384L22.7921 25.4091L21.2339 23.6346L22.0167 23.3886L23.3066 24.8275C24.2087 23.9179 25.1258 23.0083 26.0354 22.0987L27.5862 21.6216Z" fill="#029147"/>
<path d="M28.123 22.1286L23.8061 26.4454C23.7368 26.5153 23.6543 26.5708 23.5635 26.6086C23.4726 26.6465 23.3752 26.666 23.2768 26.666C23.1783 26.666 23.0809 26.6465 22.99 26.6086C22.8992 26.5708 22.8167 26.5153 22.7474 26.4454L20.7045 24.164C20.0633 23.4184 21.1221 22.3895 21.7632 23.1127C21.8453 23.2022 21.9273 23.2991 22.0167 23.3886L23.3066 24.8275C24.2087 23.9179 25.1258 23.0083 26.0354 22.0987L27.0643 21.0699C27.2047 20.9295 27.3951 20.8506 27.5936 20.8506C27.7922 20.8506 27.9826 20.9295 28.123 21.0699C28.2634 21.2102 28.3423 21.4007 28.3423 21.5992C28.3423 21.7978 28.2634 21.9882 28.123 22.1286Z" fill="#029147"/>
</svg>
