<?xml version="1.0" encoding="utf-8"?>
<!-- Generator: Adobe Illustrator 23.1.1, SVG Export Plug-In . SVG Version: 6.00 Build 0)  -->
<svg version="1.1" id="Layer_1" xmlns="http://www.w3.org/2000/svg" xmlns:xlink="http://www.w3.org/1999/xlink" x="0px" y="0px"
	 viewBox="0 0 155 105" style="enable-background:new 0 0 155 105;" xml:space="preserve">
<style type="text/css">
	.st0{fill:#B5B5B5;}
	.st1{fill-rule:evenodd;clip-rule:evenodd;fill:#FFFFFF;}
	.st2{fill:#FFFFFF;}
</style>
<rect x="-1.14" y="-1.2" class="st0" width="157.71" height="107.34"/>
<g>
	<g>
		<path class="st1" d="M36.95,42.66c5.43,2.86,7.52,9.57,4.67,15.02c-2.86,5.43-9.57,7.52-15.02,4.67s-7.52-9.57-4.67-15.02
			C24.8,41.89,31.52,39.8,36.95,42.66L36.95,42.66z M36.15,44.19c-4.59-2.41-10.27-0.65-12.68,3.94s-0.65,10.27,3.94,12.68
			c4.59,2.41,10.27,0.65,12.68-3.94C42.5,52.28,40.74,46.6,36.15,44.19z"/>
		<path class="st1" d="M29.48,62.25c3.34-7.2,5.44-14.13,2.36-20.01c0.1-0.08,0.2-0.14,0.29-0.22c0.09,0.1,0.18,0.2,0.27,0.3
			c2.92,5.36,1.08,12.42-2.44,20.1c-0.05,0.4-0.21,0.69-0.3,0.5C29.6,62.7,29.54,62.47,29.48,62.25z"/>
		<path class="st1" d="M38.15,60.52c-2.55-7.52-5.8-13.99-12.08-16.12c0.02-0.12,0.04-0.24,0.06-0.36c0.14,0.01,0.27,0.02,0.4,0.03
			c5.81,1.87,9.35,8.25,12.09,16.24c0.24,0.33,0.33,0.65,0.13,0.58C38.54,60.77,38.35,60.65,38.15,60.52z"/>
		<path class="st1" d="M22.29,52.65c7.3-2.54,14.32-3.89,20.21-0.22c0.08-0.09,0.15-0.17,0.22-0.27c-0.1-0.1-0.2-0.2-0.3-0.3
			c-5.37-3.45-12.52-2.38-20.3,0.29c-0.4,0.02-0.7,0.14-0.51,0.24C21.84,52.48,22.07,52.57,22.29,52.65z"/>
		<path class="st1" d="M31.52,59.41c0.77,0,1.39-0.62,1.39-1.39c0-0.77-0.62-1.39-1.39-1.39c-0.77,0-1.39,0.62-1.39,1.39
			C30.12,58.78,30.75,59.41,31.52,59.41z"/>
		<path class="st1" d="M35.97,55.55c0.77,0,1.39-0.62,1.39-1.39c0-0.77-0.62-1.39-1.39-1.39s-1.39,0.62-1.39,1.39
			C34.58,54.92,35.21,55.55,35.97,55.55z"/>
		<path class="st1" d="M38.25,51.82c0.77,0,1.39-0.62,1.39-1.39c0-0.77-0.62-1.39-1.39-1.39c-0.77,0-1.39,0.62-1.39,1.39
			C36.86,51.2,37.49,51.82,38.25,51.82z"/>
		<path class="st1" d="M27.12,52.45c0.77,0,1.39-0.62,1.39-1.39c0-0.77-0.62-1.39-1.39-1.39c-0.77,0-1.39,0.62-1.39,1.39
			C25.73,51.82,26.35,52.45,27.12,52.45z"/>
		<path class="st1" d="M33.32,46.92c0.77,0,1.39-0.62,1.39-1.39c0-0.77-0.62-1.39-1.39-1.39c-0.77,0-1.39,0.62-1.39,1.39
			C31.92,46.3,32.55,46.92,33.32,46.92z"/>
	</g>
	<g>
		<g>
			<path class="st2" d="M108.35,53.21c0.44,0,0.81,0.16,1.13,0.48c0.31,0.32,0.47,0.7,0.47,1.13c0,0.44-0.16,0.81-0.47,1.12
				c-0.31,0.3-0.69,0.46-1.13,0.46c-0.46,0-0.84-0.14-1.14-0.45c-0.3-0.3-0.45-0.68-0.45-1.14c0-0.45,0.15-0.83,0.46-1.14
				C107.54,53.37,107.91,53.21,108.35,53.21z"/>
			<path class="st2" d="M115.41,53.71v2.6c-0.21,0.04-0.4,0.05-0.56,0.05c-1,0-1.85-0.33-2.52-1c-0.67-0.66-1-1.49-1-2.49
				c0-0.97,0.34-1.79,1.02-2.47c0.68-0.68,1.5-1.01,2.47-1.01c1.09,0,1.94,0.32,2.56,0.95c0.62,0.63,0.93,1.5,0.93,2.59v3.28h-2.51
				v-3.1c0-0.35-0.08-0.64-0.26-0.84c-0.17-0.21-0.4-0.31-0.69-0.31c-0.27,0-0.49,0.1-0.68,0.29c-0.19,0.19-0.29,0.42-0.29,0.68
				c0,0.28,0.08,0.5,0.26,0.68c0.17,0.18,0.4,0.27,0.66,0.27C115.02,53.88,115.22,53.82,115.41,53.71z"/>
			<path class="st2" d="M123.96,49.63v2.64c-0.35,0-0.59,0.07-0.73,0.2c-0.13,0.13-0.21,0.4-0.25,0.78c-0.11,1.29-0.62,2.2-1.5,2.74
				c-0.47,0.28-1.13,0.42-2,0.42h-0.35v-2.65h0.11c0.4,0,0.69-0.08,0.86-0.25c0.17-0.17,0.27-0.46,0.3-0.88
				c0.04-0.68,0.1-1.16,0.19-1.44c0.09-0.28,0.28-0.55,0.56-0.82c0.49-0.48,1.18-0.71,2.04-0.71
				C123.2,49.63,123.96,49.63,123.96,49.63z"/>
			<path class="st2" d="M126.04,46.54c0.34,0,0.64,0.12,0.88,0.36c0.25,0.24,0.37,0.52,0.37,0.85c0,0.35-0.11,0.64-0.35,0.86
				c-0.24,0.22-0.53,0.33-0.9,0.33s-0.67-0.11-0.9-0.33s-0.35-0.51-0.35-0.86c0-0.33,0.12-0.61,0.37-0.85
				C125.41,46.66,125.7,46.54,126.04,46.54z M127.28,49.53v6.69h-2.51v-6.69H127.28z"/>
			<path class="st2" d="M132.48,53.71v2.6c-0.21,0.04-0.4,0.05-0.56,0.05c-1,0-1.85-0.33-2.52-1c-0.67-0.66-1-1.49-1-2.49
				c0-0.97,0.34-1.79,1.02-2.47c0.68-0.68,1.5-1.01,2.47-1.01c1.08,0,1.94,0.32,2.56,0.95c0.62,0.63,0.93,1.5,0.93,2.59v3.28h-2.51
				v-3.1c0-0.35-0.08-0.64-0.26-0.84c-0.17-0.21-0.4-0.31-0.69-0.31c-0.27,0-0.49,0.1-0.68,0.29s-0.29,0.42-0.29,0.68
				c0,0.28,0.08,0.5,0.26,0.68c0.17,0.17,0.4,0.27,0.66,0.27C132.09,53.88,132.29,53.82,132.48,53.71z"/>
		</g>
		<g>
			<path class="st2" d="M53.3,50.61v2.76h-1.18v2.71h-2.63v-5.97c0-0.67,0.11-1.25,0.34-1.72c0.29-0.61,0.73-1.1,1.33-1.48
				c0.59-0.38,1.22-0.58,1.85-0.58l0.28,0.01v2.76c-0.06-0.01-0.11-0.01-0.13-0.01c-0.33,0-0.59,0.11-0.78,0.33
				c-0.18,0.22-0.27,0.53-0.27,0.94v0.24h1.18V50.61z"/>
			<path class="st2" d="M57.79,48.9c1,0,1.85,0.36,2.56,1.07c0.71,0.71,1.06,1.57,1.06,2.58c0,1.01-0.36,1.88-1.08,2.59
				c-0.72,0.71-1.59,1.07-2.61,1.07c-1.02,0-1.89-0.36-2.61-1.07c-0.72-0.71-1.09-1.58-1.09-2.59c0-1.03,0.36-1.89,1.09-2.59
				C55.84,49.26,56.73,48.9,57.79,48.9z M57.72,51.5c-0.28,0-0.52,0.1-0.71,0.3c-0.2,0.21-0.3,0.46-0.3,0.75
				c0,0.29,0.1,0.54,0.3,0.74c0.2,0.21,0.44,0.31,0.71,0.31c0.28,0,0.52-0.1,0.72-0.31s0.3-0.46,0.3-0.74c0-0.3-0.1-0.55-0.3-0.75
				C58.25,51.6,58,51.5,57.72,51.5z"/>
			<path class="st2" d="M65.85,48.9c1,0,1.85,0.36,2.56,1.07c0.71,0.71,1.06,1.57,1.06,2.58c0,1.01-0.36,1.88-1.08,2.59
				c-0.72,0.71-1.59,1.07-2.61,1.07c-1.02,0-1.89-0.36-2.61-1.07c-0.72-0.71-1.09-1.58-1.09-2.59c0-1.03,0.36-1.89,1.09-2.59
				C63.89,49.26,64.78,48.9,65.85,48.9z M65.78,51.5c-0.28,0-0.52,0.1-0.71,0.3c-0.2,0.21-0.3,0.46-0.3,0.75
				c0,0.29,0.1,0.54,0.3,0.74c0.2,0.21,0.44,0.31,0.71,0.31c0.28,0,0.52-0.1,0.72-0.31c0.2-0.21,0.3-0.46,0.3-0.74
				c0-0.3-0.1-0.55-0.3-0.75C66.3,51.6,66.07,51.5,65.78,51.5z"/>
			<path class="st2" d="M74.9,46.46h2.64v5.85c0,1.07-0.28,1.95-0.84,2.63c-0.33,0.39-0.74,0.7-1.24,0.93
				c-0.5,0.23-1.01,0.34-1.54,0.34c-1.05,0-1.93-0.35-2.65-1.06c-0.71-0.71-1.08-1.57-1.08-2.59c0-0.99,0.36-1.85,1.07-2.57
				c0.71-0.72,1.56-1.09,2.54-1.09c0.15,0,0.39,0.02,0.71,0.04v2.9c-0.21-0.17-0.43-0.25-0.65-0.25c-0.27,0-0.51,0.1-0.7,0.3
				c-0.2,0.2-0.29,0.44-0.29,0.72c0,0.27,0.1,0.51,0.3,0.7c0.21,0.2,0.44,0.29,0.73,0.29c0.68,0,1.01-0.47,1.01-1.41L74.9,46.46
				L74.9,46.46z"/>
			<path class="st2" d="M88.55,56.07h-2.64v-3.78c0-0.29-0.03-0.49-0.09-0.61c-0.06-0.11-0.17-0.17-0.33-0.17
				c-0.3,0-0.44,0.26-0.44,0.78v3.78h-2.64v-3.78c0-0.29-0.03-0.49-0.1-0.61c-0.06-0.11-0.17-0.17-0.33-0.17
				c-0.29,0-0.44,0.26-0.44,0.78v3.78h-2.64v-4.32c0-0.79,0.27-1.46,0.8-2.01c0.53-0.55,1.18-0.83,1.93-0.83
				c0.78,0,1.48,0.33,2.1,0.99c0.69-0.65,1.38-0.99,2.07-0.99c0.88,0,1.58,0.32,2.11,0.96c0.42,0.5,0.62,1.22,0.62,2.17v4.02H88.55z
				"/>
			<path class="st2" d="M93.99,53.43v2.73c-0.21,0.04-0.41,0.05-0.59,0.05c-1.06,0-1.94-0.35-2.64-1.04
				c-0.71-0.7-1.06-1.57-1.06-2.61c0-1.02,0.36-1.88,1.06-2.59c0.71-0.71,1.57-1.06,2.59-1.06c1.14,0,2.03,0.33,2.69,1
				c0.65,0.67,0.98,1.57,0.98,2.72v3.44h-2.64v-3.25c0-0.37-0.09-0.67-0.27-0.89s-0.43-0.33-0.73-0.33c-0.28,0-0.52,0.1-0.71,0.3
				c-0.21,0.21-0.3,0.44-0.3,0.71c0,0.29,0.09,0.53,0.27,0.71c0.18,0.19,0.42,0.28,0.7,0.28C93.58,53.62,93.79,53.56,93.99,53.43z"
				/>
			<path class="st2" d="M101.05,58.67h-2.64v-5.86c0-1.07,0.28-1.95,0.84-2.63c0.33-0.39,0.74-0.7,1.24-0.93
				c0.5-0.23,1.01-0.34,1.54-0.34c1.05,0,1.93,0.35,2.65,1.06c0.71,0.71,1.08,1.57,1.08,2.59c0,1-0.36,1.85-1.07,2.58
				c-0.71,0.72-1.56,1.09-2.54,1.09c-0.16,0-0.4-0.02-0.71-0.05v-2.9c0.21,0.17,0.43,0.26,0.65,0.26c0.27,0,0.51-0.1,0.7-0.3
				c0.2-0.21,0.29-0.44,0.29-0.71s-0.1-0.52-0.3-0.71c-0.21-0.2-0.44-0.29-0.73-0.29c-0.68,0-1.01,0.47-1.01,1.4L101.05,58.67
				L101.05,58.67z"/>
		</g>
	</g>
</g>
</svg>
