<?xml version="1.0" encoding="UTF-8"?>
<svg width="23px" height="20px" viewBox="0 0 23 20" version="1.1" xmlns="http://www.w3.org/2000/svg" xmlns:xlink="http://www.w3.org/1999/xlink">
    <title>Path Copy 9</title>
    <g id="Desktop" stroke="none" stroke-width="1" fill="none" fill-rule="evenodd">
        <g id="Food-map-Category" transform="translate(-829.000000, -966.000000)" fill-rule="nonzero" stroke="#10723A" stroke-width="2">
            <path d="M845.20022,967 C846.65178,967 847.988054,967.579345 848.961436,968.635074 C849.948963,969.706258 850.480019,971.173052 850.480019,972.755737 C850.480019,974.441946 849.824527,975.973097 848.480603,977.594626 C847.150557,979.199599 845.234332,980.823761 843.021276,982.709628 C842.230054,983.384032 841.356582,984.128575 840.449893,984.92148 C839.116225,984.122397 838.236971,983.372984 837.461092,982.711705 C835.246045,980.824093 833.329682,979.19966 831.99958,977.594787 C830.655683,975.97314 830,974.441984 830,972.755908 C830,971.173047 830.531063,969.706224 831.518376,968.635113 C832.491801,967.579337 833.828232,967 835.2798,967 C836.35317,967 837.335221,967.341402 838.200122,968.010322 C838.655241,968.362267 839.066454,968.79405 839.429689,969.296342 C839.77685,969.776408 840.049118,970.277919 840.239878,970.794804 C840.430689,970.278018 840.702959,969.776644 841.050299,969.296386 C841.413721,968.793891 841.824829,968.362209 842.279714,968.010331 C843.144734,967.341429 844.126812,967 845.20022,967 Z" id="Path-Copy-9"></path>
        </g>
    </g>
</svg>